# xmcd
#
# Track frame offsets:
# 150
# 2584
# 3454
# 4544
# 7164
# 9443
# 11597
# 13192
#
# Disc length: 209 seconds
#
#
# Revision: 0
# Processed by: cddbd v1.5.2PL0 Copyright (c) Steve Scherf et al.
# Submitted via: FreeRIP 2.951 
#
DISCID=4600cf08
DTITLE=Visual Cosmeticos - Visual Cosmeticos
DYEAR=1900
DGENRE=
TTITLE0=Visual Cosmeticos 1
TTITLE1=Visual Cosmeticos 2
TTITLE2=Visual Cosmeticos 3
TTITLE3=Visual Cosmeticos 4
TTITLE4=Visual Cosmeticos 5
TTITLE5=Visual Cosmeticos 6
TTITLE6=Visual Cosmeticos 7
TTITLE7=Visual Cosmeticos 8
EXTD=
EXTT0=
EXTT1=
EXTT2=
EXTT3=
EXTT4=
EXTT5=
EXTT6=
EXTT7=
PLAYORDER=
